<svg width="51" height="51" viewBox="0 0 51 51" fill="none" xmlns="http://www.w3.org/2000/svg">
<path fill-rule="evenodd" clip-rule="evenodd" d="M0 25.5C0 39.5833 11.4167 51 25.5 51C39.5833 51 51 39.5833 51 25.5C51 11.4167 39.5833 0 25.5 0C11.4167 0 0 11.4167 0 25.5ZM46.3636 25.5C46.3636 37.0227 37.0227 46.3636 25.5 46.3636C13.9773 46.3636 4.63635 37.0227 4.63635 25.5C4.63635 13.9773 13.9773 4.63637 25.5 4.63637C37.0227 4.63637 46.3636 13.9773 46.3636 25.5Z" fill="#FF334B"/>
<path fill-rule="evenodd" clip-rule="evenodd" d="M27.5901 37.602L30.1401 33.4897L32.6901 37.602V15.7269C32.6901 14.4291 32.364 13.377 31.9616 13.377H28.3187C27.9163 13.377 27.5901 14.4291 27.5901 15.7269V37.602ZM30.1402 30.8625L28.3187 33.7999V15.7269H31.9616V33.7999L30.1402 30.8625Z" fill="white"/>
<rect x="28.0056" y="15.5839" width="4.18033" height="18.3934" fill="white"/>
<path fill-rule="evenodd" clip-rule="evenodd" d="M18.3934 37.602L20.9434 33.4897L23.4934 37.602V15.7269C23.4934 14.4291 23.1672 13.377 22.7649 13.377H19.122C18.7196 13.377 18.3934 14.4291 18.3934 15.7269V37.602ZM20.9434 30.8625L19.122 33.7999V15.7269H22.7649V33.7999L20.9434 30.8625Z" fill="white"/>
<rect x="18.8088" y="15.5839" width="4.18033" height="18.3934" fill="white"/>
</svg>
